<?xml version="1.0" encoding="UTF-8" standalone="no"?>
<svg
   xmlns:dc="http://purl.org/dc/elements/1.1/"
   xmlns:cc="http://creativecommons.org/ns#"
   xmlns:rdf="http://www.w3.org/1999/02/22-rdf-syntax-ns#"
   xmlns:svg="http://www.w3.org/2000/svg"
   xmlns="http://www.w3.org/2000/svg"
   xmlns:sodipodi="http://sodipodi.sourceforge.net/DTD/sodipodi-0.dtd"
   xmlns:inkscape="http://www.inkscape.org/namespaces/inkscape"
   version="1.0"
   width="50"
   height="10"
   viewBox="0 0 40 8"
   preserveAspectRatio="xMidYMid meet"
   id="svg2"
   inkscape:version="0.48.4 r9939"
   sodipodi:docname="PVsGaWQN01.svg">
  <defs
     id="defs16" />
  <sodipodi:namedview
     pagecolor="#ffffff"
     bordercolor="#666666"
     borderopacity="1"
     objecttolerance="10"
     gridtolerance="10"
     guidetolerance="10"
     inkscape:pageopacity="0"
     inkscape:pageshadow="2"
     inkscape:window-width="1920"
     inkscape:window-height="1056"
     id="namedview14"
     showgrid="false"
     inkscape:zoom="9.94"
     inkscape:cx="13.543763"
     inkscape:cy="6.25"
     inkscape:window-x="0"
     inkscape:window-y="24"
     inkscape:window-maximized="1"
     inkscape:current-layer="svg2" />
  <metadata
     id="metadata4">
Created by potrace 1.10, written by Peter Selinger 2001-2011
<rdf:RDF>
  <cc:Work
     rdf:about="">
    <dc:format>image/svg+xml</dc:format>
    <dc:type
       rdf:resource="http://purl.org/dc/dcmitype/StillImage" />
  </cc:Work>
</rdf:RDF>
</metadata>
  <g
     transform="matrix(0.07997001,0,0,-0.07997001,0.06669424,8.0141643)"
     id="g6"
     style="fill:#efefef;stroke:none;fill-opacity:1">
    <path
       d="M 16,85 C 4,72 1,59 5,41 15,3 43,-10 84,6 104,14 105,49 85,57 64,65 52,51 70,40 82,33 82,28 72,18 63,9 55,8 42,16 17,32 15,67 39,80 64,93 88,82 142,34 177,3 181,2 212,13 c 32,11 32,11 8,17 -14,3 -43,17 -65,32 C 102,98 40,108 16,85 z"
       id="path8"
       inkscape:connector-curvature="0"
       style="fill:#efefef;fill-opacity:1" />
    <path
       d="M 185,85 C 157,72 156,72 179,71 192,70 220,54 241,35 277,3 281,1 312,13 c 32,11 32,12 8,15 -14,2 -42,19 -62,38 -21,19 -39,34 -41,34 -1,-1 -15,-7 -32,-15 z"
       id="path10"
       inkscape:connector-curvature="0"
       style="fill:#efefef;fill-opacity:1" />
    <path
       d="m 285,85 c -27,-12 -28,-13 -7,-14 12,-1 40,-14 62,-30 62,-45 140,-52 154,-15 17,45 -20,82 -70,70 -27,-7 -33,-43 -9,-53 21,-8 33,6 15,17 -12,7 -12,12 -2,22 9,9 17,10 30,2 25,-16 27,-51 3,-64 -24,-12 -63,4 -96,40 -31,34 -47,39 -80,25 z"
       id="path12"
       inkscape:connector-curvature="0"
       style="fill:#efefef;fill-opacity:1" />
  </g>
</svg>
